<svg width="30" height="30" viewBox="0 0 30 30" fill="none" xmlns="http://www.w3.org/2000/svg">
<rect width="30" height="30" rx="2" fill="#7481FF"/>
<path d="M14.8573 10.6956C12.5992 10.6956 10.7283 12.5343 10.7283 14.8246C10.7283 17.1149 12.567 18.9536 14.8573 18.9536C17.1476 18.9536 18.9863 17.0827 18.9863 14.8246C18.9863 12.5665 17.1154 10.6956 14.8573 10.6956ZM14.8573 17.4697C13.4057 17.4697 12.2121 16.2762 12.2121 14.8246C12.2121 13.373 13.4057 12.1794 14.8573 12.1794C16.3089 12.1794 17.5025 13.373 17.5025 14.8246C17.5025 16.2762 16.3089 17.4697 14.8573 17.4697Z" fill="white"/>
<path d="M19.1501 11.5343C19.6667 11.5343 20.0856 11.1155 20.0856 10.5988C20.0856 10.0822 19.6667 9.66333 19.1501 9.66333C18.6334 9.66333 18.2146 10.0822 18.2146 10.5988C18.2146 11.1155 18.6334 11.5343 19.1501 11.5343Z" fill="white"/>
<path d="M21.5669 8.17976C20.7281 7.30879 19.5346 6.85718 18.1798 6.85718H11.5346C8.72815 6.85718 6.85718 8.72815 6.85718 11.5346V18.1475C6.85718 19.5346 7.30879 20.7281 8.21202 21.5991C9.08298 22.4378 10.2443 22.8572 11.5669 22.8572H18.1475C19.5346 22.8572 20.6959 22.4056 21.5346 21.5991C22.4056 20.7604 22.8572 19.5669 22.8572 18.1798V11.5346C22.8572 10.1798 22.4056 9.01847 21.5669 8.17976ZM21.4378 18.1798C21.4378 19.1798 21.083 19.9862 20.5023 20.5346C19.9217 21.083 19.1152 21.3733 18.1475 21.3733H11.5669C10.5991 21.3733 9.79266 21.083 9.21202 20.5346C8.63137 19.954 8.34105 19.1475 8.34105 18.1475V11.5346C8.34105 10.5669 8.63137 9.7604 9.21202 9.17976C9.7604 8.63137 10.5991 8.34105 11.5669 8.34105H18.212C19.1798 8.34105 19.9862 8.63137 20.5669 9.21202C21.1152 9.79266 21.4378 10.5991 21.4378 11.5346V18.1798Z" fill="white"/>
</svg>
