<svg width="30" height="30" viewBox="0 0 30 30" fill="none" xmlns="http://www.w3.org/2000/svg">
<rect width="30" height="30" rx="2" fill="#7481FF"/>
<path d="M23.3845 11.2773C23.19 10.5543 22.62 9.98444 21.8972 9.78978C20.5767 9.42847 15.2945 9.42847 15.2945 9.42847C15.2945 9.42847 10.0125 9.42847 8.69196 9.77608C7.98304 9.97054 7.39915 10.5544 7.20469 11.2773C6.85718 12.5977 6.85718 15.336 6.85718 15.336C6.85718 15.336 6.85718 18.0882 7.20469 19.3948C7.39935 20.1177 7.96913 20.6876 8.69207 20.8822C10.0264 21.2436 15.2947 21.2436 15.2947 21.2436C15.2947 21.2436 20.5767 21.2436 21.8972 20.896C22.6201 20.7015 23.19 20.1316 23.3847 19.4087C23.7321 18.0882 23.7321 15.35 23.7321 15.35C23.7321 15.35 23.746 12.5977 23.3845 11.2773ZM13.6127 17.8659V12.8062L18.0051 15.336L13.6127 17.8659Z" fill="white"/>
</svg>
